solid medium_ramp_wedge
  facet normal 0 0 1
    outer loop
      vertex 1.55 0.65 0.15
      vertex 2.45 0.65 0.15
      vertex 2.45 1.35 0.15
    endloop
  endfacet
  facet normal 0 0 1
    outer loop
      vertex 1.55 0.65 0.15
      vertex 2.45 1.35 0.15
      vertex 1.55 1.35 0.15
    endloop
  endfacet
  facet normal 0 1 0
    outer loop
      vertex 1.55 0.65 0.15
      vertex 1.55 0.65 0.75
      vertex 2.45 0.65 0.15
    endloop
  endfacet
  facet normal 0 -1 0
    outer loop
      vertex 1.55 1.35 0.15
      vertex 2.45 1.35 0.15
      vertex 1.55 1.35 0.75
    endloop
  endfacet
  facet normal 1 0 0
    outer loop
      vertex 1.55 0.65 0.15
      vertex 1.55 1.35 0.15
      vertex 1.55 1.35 0.75
    endloop
  endfacet
  facet normal 1 0 0
    outer loop
      vertex 1.55 0.65 0.15
      vertex 1.55 1.35 0.75
      vertex 1.55 0.65 0.75
    endloop
  endfacet
  facet normal -0.5547002 0 -0.83205029
    outer loop
      vertex 1.55 0.65 0.75
      vertex 1.55 1.35 0.75
      vertex 2.45 1.35 0.15
    endloop
  endfacet
  facet normal -0.5547002 0 -0.83205029
    outer loop
      vertex 1.55 0.65 0.75
      vertex 2.45 1.35 0.15
      vertex 2.45 0.65 0.15
    endloop
  endfacet
endsolid medium_ramp_wedge
