solid simple_center_cube
  facet normal 0 0 1
    outer loop
      vertex 0.4 0.4 0.4
      vertex 0.6 0.4 0.4
      vertex 0.6 0.6 0.4
    endloop
  endfacet
  facet normal 0 0 1
    outer loop
      vertex 0.4 0.4 0.4
      vertex 0.6 0.6 0.4
      vertex 0.4 0.6 0.4
    endloop
  endfacet
  facet normal 0 0 -1
    outer loop
      vertex 0.4 0.4 0.6
      vertex 0.4 0.6 0.6
      vertex 0.6 0.6 0.6
    endloop
  endfacet
  facet normal 0 0 -1
    outer loop
      vertex 0.4 0.4 0.6
      vertex 0.6 0.6 0.6
      vertex 0.6 0.4 0.6
    endloop
  endfacet
  facet normal 0 1 0
    outer loop
      vertex 0.4 0.4 0.4
      vertex 0.4 0.4 0.6
      vertex 0.6 0.4 0.6
    endloop
  endfacet
  facet normal 0 1 0
    outer loop
      vertex 0.4 0.4 0.4
      vertex 0.6 0.4 0.6
      vertex 0.6 0.4 0.4
    endloop
  endfacet
  facet normal -1 0 0
    outer loop
      vertex 0.6 0.4 0.4
      vertex 0.6 0.4 0.6
      vertex 0.6 0.6 0.6
    endloop
  endfacet
  facet normal -1 0 0
    outer loop
      vertex 0.6 0.4 0.4
      vertex 0.6 0.6 0.6
      vertex 0.6 0.6 0.4
    endloop
  endfacet
  facet normal 0 -1 0
    outer loop
      vertex 0.6 0.6 0.4
      vertex 0.6 0.6 0.6
      vertex 0.4 0.6 0.6
    endloop
  endfacet
  facet normal 0 -1 0
    outer loop
      vertex 0.6 0.6 0.4
      vertex 0.4 0.6 0.6
      vertex 0.4 0.6 0.4
    endloop
  endfacet
  facet normal 1 0 -0
    outer loop
      vertex 0.4 0.6 0.4
      vertex 0.4 0.6 0.6
      vertex 0.4 0.4 0.6
    endloop
  endfacet
  facet normal 1 0 0
    outer loop
      vertex 0.4 0.6 0.4
      vertex 0.4 0.4 0.6
      vertex 0.4 0.4 0.4
    endloop
  endfacet
endsolid simple_center_cube
